<mxfile host="65bd71144e">
    <diagram id="adtiE9BWaBTzzWTMa0kd" name="Page-1">
        <mxGraphModel dx="1903" dy="904" grid="1" gridSize="10" guides="1" tooltips="1" connect="1" arrows="1" fold="1" page="1" pageScale="1" pageWidth="850" pageHeight="1100" math="0" shadow="0">
            <root>
                <mxCell id="0"/>
                <mxCell id="1" parent="0"/>
                <mxCell id="49" value="begin" style="rounded=1;whiteSpace=wrap;html=1;verticalAlign=middle;arcSize=10;fillColor=#d80073;fontColor=#ffffff;fontSize=22;strokeColor=#000000;" vertex="1" parent="1">
                    <mxGeometry x="335" y="670" width="70" height="40" as="geometry"/>
                </mxCell>
                <mxCell id="50" value="S" style="rounded=1;whiteSpace=wrap;html=1;verticalAlign=middle;arcSize=10;fillColor=#d80073;fontColor=#ffffff;fontSize=22;strokeColor=#000000;" vertex="1" parent="1">
                    <mxGeometry x="420" y="670" width="70" height="40" as="geometry"/>
                </mxCell>
                <mxCell id="51" value=";" style="rounded=1;whiteSpace=wrap;html=1;verticalAlign=middle;arcSize=10;fillColor=#d80073;fontColor=#ffffff;fontSize=22;strokeColor=#000000;" vertex="1" parent="1">
                    <mxGeometry x="510" y="670" width="70" height="40" as="geometry"/>
                </mxCell>
                <mxCell id="52" value="S" style="rounded=1;whiteSpace=wrap;html=1;verticalAlign=middle;arcSize=10;fillColor=#fa6800;fontColor=#000000;fontSize=22;strokeColor=#000000;" vertex="1" parent="1">
                    <mxGeometry x="600" y="670" width="70" height="40" as="geometry"/>
                </mxCell>
                <mxCell id="53" value=";" style="rounded=1;whiteSpace=wrap;html=1;verticalAlign=middle;arcSize=10;fillColor=#a20025;fontColor=#ffffff;fontSize=22;strokeColor=#000000;" vertex="1" parent="1">
                    <mxGeometry x="690" y="670" width="70" height="40" as="geometry"/>
                </mxCell>
                <mxCell id="54" value="end" style="rounded=1;whiteSpace=wrap;html=1;verticalAlign=middle;arcSize=10;fillColor=#a20025;fontColor=#ffffff;fontSize=22;strokeColor=#000000;" vertex="1" parent="1">
                    <mxGeometry x="780" y="670" width="70" height="40" as="geometry"/>
                </mxCell>
                <mxCell id="55" value="statlist" style="rounded=1;whiteSpace=wrap;html=1;verticalAlign=top;arcSize=10;fillColor=#6a00ff;fontColor=#ffffff;strokeColor=#000000;" vertex="1" parent="1">
                    <mxGeometry x="50" y="750" width="220" height="60" as="geometry"/>
                </mxCell>
                <mxCell id="56" style="edgeStyle=orthogonalEdgeStyle;html=1;exitX=0.5;exitY=1;exitDx=0;exitDy=0;entryX=0.5;entryY=0;entryDx=0;entryDy=0;fontSize=17;endArrow=open;endFill=0;endSize=10;strokeColor=#000000;" edge="1" parent="1" source="57" target="64">
                    <mxGeometry relative="1" as="geometry"/>
                </mxCell>
                <mxCell id="57" value="stat" style="rounded=1;whiteSpace=wrap;html=1;fillColor=#6a00ff;fontColor=#ffffff;strokeColor=#000000;" vertex="1" parent="1">
                    <mxGeometry x="60" y="780" width="60" height="25" as="geometry"/>
                </mxCell>
                <mxCell id="58" value=";" style="rounded=1;whiteSpace=wrap;html=1;fillColor=#d80073;fontColor=#ffffff;fontSize=17;strokeColor=#000000;" vertex="1" parent="1">
                    <mxGeometry x="130" y="780" width="60" height="25" as="geometry"/>
                </mxCell>
                <mxCell id="59" value="statlist" style="rounded=1;whiteSpace=wrap;html=1;fillColor=#0050ef;fontColor=#ffffff;strokeColor=#000000;" vertex="1" parent="1">
                    <mxGeometry x="200" y="780" width="60" height="25" as="geometry"/>
                </mxCell>
                <mxCell id="60" value="stat" style="rounded=1;whiteSpace=wrap;html=1;verticalAlign=top;arcSize=10;fillColor=#6a00ff;fontColor=#ffffff;strokeColor=#000000;" vertex="1" parent="1">
                    <mxGeometry x="50" y="660" width="150" height="60" as="geometry"/>
                </mxCell>
                <mxCell id="61" value="begin" style="rounded=1;whiteSpace=wrap;html=1;fillColor=#d80073;fontColor=#ffffff;fontSize=17;verticalAlign=middle;strokeColor=#000000;" vertex="1" parent="1">
                    <mxGeometry x="60" y="690" width="60" height="25" as="geometry"/>
                </mxCell>
                <mxCell id="62" style="edgeStyle=orthogonalEdgeStyle;html=1;exitX=0.5;exitY=1;exitDx=0;exitDy=0;entryX=0.5;entryY=0;entryDx=0;entryDy=0;fontSize=17;endArrow=open;endFill=0;endSize=10;strokeColor=#000000;" edge="1" parent="1" source="63" target="55">
                    <mxGeometry relative="1" as="geometry"/>
                </mxCell>
                <mxCell id="63" value="statlist" style="rounded=1;whiteSpace=wrap;html=1;fillColor=#6a00ff;fontColor=#ffffff;strokeColor=#000000;" vertex="1" parent="1">
                    <mxGeometry x="130" y="690" width="60" height="25" as="geometry"/>
                </mxCell>
                <mxCell id="64" value="stat" style="rounded=1;whiteSpace=wrap;html=1;verticalAlign=top;arcSize=10;fillColor=#6a00ff;fontColor=#ffffff;strokeColor=#000000;" vertex="1" parent="1">
                    <mxGeometry x="55" y="840" width="70" height="60" as="geometry"/>
                </mxCell>
                <mxCell id="65" value="S" style="rounded=1;whiteSpace=wrap;html=1;fillColor=#d80073;fontColor=#ffffff;fontSize=22;strokeColor=#000000;" vertex="1" parent="1">
                    <mxGeometry x="60" y="865" width="60" height="25" as="geometry"/>
                </mxCell>
                <mxCell id="66" value="statlist" style="rounded=1;whiteSpace=wrap;html=1;verticalAlign=top;arcSize=10;fillColor=#6a00ff;fontColor=#ffffff;strokeColor=#000000;" vertex="1" parent="1">
                    <mxGeometry x="55" y="1020" width="220" height="60" as="geometry"/>
                </mxCell>
                <mxCell id="67" style="edgeStyle=orthogonalEdgeStyle;html=1;exitX=0.5;exitY=1;exitDx=0;exitDy=0;entryX=0.5;entryY=0;entryDx=0;entryDy=0;fontSize=17;endArrow=open;endFill=0;endSize=10;strokeColor=#000000;" edge="1" parent="1" source="68" target="76">
                    <mxGeometry relative="1" as="geometry"/>
                </mxCell>
                <mxCell id="68" value="stat" style="rounded=1;whiteSpace=wrap;html=1;fillColor=#6a00ff;fontColor=#ffffff;strokeColor=#000000;" vertex="1" parent="1">
                    <mxGeometry x="65" y="1050" width="60" height="25" as="geometry"/>
                </mxCell>
                <mxCell id="69" value=";" style="rounded=1;whiteSpace=wrap;html=1;fillColor=#d80073;fontColor=#ffffff;fontSize=17;strokeColor=#000000;" vertex="1" parent="1">
                    <mxGeometry x="135" y="1050" width="60" height="25" as="geometry"/>
                </mxCell>
                <mxCell id="70" style="edgeStyle=orthogonalEdgeStyle;html=1;exitX=0.5;exitY=1;exitDx=0;exitDy=0;entryX=0.5;entryY=0;entryDx=0;entryDy=0;fontSize=17;endArrow=open;endFill=0;endSize=10;strokeColor=#000000;" edge="1" parent="1" source="71" target="78">
                    <mxGeometry relative="1" as="geometry"/>
                </mxCell>
                <mxCell id="71" value="statlist" style="rounded=1;whiteSpace=wrap;html=1;fillColor=#6a00ff;fontColor=#ffffff;strokeColor=#000000;" vertex="1" parent="1">
                    <mxGeometry x="205" y="1050" width="60" height="25" as="geometry"/>
                </mxCell>
                <mxCell id="72" value="stat" style="rounded=1;whiteSpace=wrap;html=1;verticalAlign=top;arcSize=10;fillColor=#6a00ff;fontColor=#ffffff;strokeColor=#000000;" vertex="1" parent="1">
                    <mxGeometry x="55" y="930" width="150" height="60" as="geometry"/>
                </mxCell>
                <mxCell id="73" value="begin" style="rounded=1;whiteSpace=wrap;html=1;fillColor=#d80073;fontColor=#ffffff;fontSize=17;verticalAlign=middle;strokeColor=#000000;" vertex="1" parent="1">
                    <mxGeometry x="65" y="960" width="60" height="25" as="geometry"/>
                </mxCell>
                <mxCell id="74" style="edgeStyle=orthogonalEdgeStyle;html=1;exitX=0.5;exitY=1;exitDx=0;exitDy=0;entryX=0.5;entryY=0;entryDx=0;entryDy=0;fontSize=17;endArrow=open;endFill=0;endSize=10;strokeColor=#000000;" edge="1" parent="1" source="75" target="66">
                    <mxGeometry relative="1" as="geometry"/>
                </mxCell>
                <mxCell id="75" value="statlist" style="rounded=1;whiteSpace=wrap;html=1;fillColor=#6a00ff;fontColor=#ffffff;strokeColor=#000000;" vertex="1" parent="1">
                    <mxGeometry x="135" y="960" width="60" height="25" as="geometry"/>
                </mxCell>
                <mxCell id="76" value="stat" style="rounded=1;whiteSpace=wrap;html=1;verticalAlign=top;arcSize=10;fillColor=#6a00ff;fontColor=#ffffff;strokeColor=#000000;" vertex="1" parent="1">
                    <mxGeometry x="60" y="1110" width="70" height="60" as="geometry"/>
                </mxCell>
                <mxCell id="77" value="S" style="rounded=1;whiteSpace=wrap;html=1;fillColor=#d80073;fontColor=#ffffff;fontSize=22;strokeColor=#000000;" vertex="1" parent="1">
                    <mxGeometry x="65" y="1135" width="60" height="25" as="geometry"/>
                </mxCell>
                <mxCell id="78" value="statlist" style="rounded=1;whiteSpace=wrap;html=1;verticalAlign=top;arcSize=10;fillColor=#6a00ff;fontColor=#ffffff;strokeColor=#000000;" vertex="1" parent="1">
                    <mxGeometry x="155" y="1110" width="220" height="60" as="geometry"/>
                </mxCell>
                <mxCell id="79" value="stat" style="rounded=1;whiteSpace=wrap;html=1;fillColor=#0050ef;fontColor=#ffffff;strokeColor=#000000;" vertex="1" parent="1">
                    <mxGeometry x="165" y="1140" width="60" height="25" as="geometry"/>
                </mxCell>
                <mxCell id="80" value=";" style="rounded=1;whiteSpace=wrap;html=1;fillColor=#a20025;fontColor=#ffffff;fontSize=17;strokeColor=#000000;" vertex="1" parent="1">
                    <mxGeometry x="235" y="1140" width="60" height="25" as="geometry"/>
                </mxCell>
                <mxCell id="81" value="statlist" style="rounded=1;whiteSpace=wrap;html=1;fillColor=#6a00ff;fontColor=#ffffff;strokeColor=#000000;" vertex="1" parent="1">
                    <mxGeometry x="305" y="1140" width="60" height="25" as="geometry"/>
                </mxCell>
                <mxCell id="82" value="begin" style="rounded=1;whiteSpace=wrap;html=1;verticalAlign=middle;arcSize=10;fillColor=#d80073;fontColor=#ffffff;fontSize=22;strokeColor=#000000;" vertex="1" parent="1">
                    <mxGeometry x="335" y="930" width="70" height="40" as="geometry"/>
                </mxCell>
                <mxCell id="83" value="S" style="rounded=1;whiteSpace=wrap;html=1;verticalAlign=middle;arcSize=10;fillColor=#d80073;fontColor=#ffffff;fontSize=22;strokeColor=#000000;" vertex="1" parent="1">
                    <mxGeometry x="420" y="930" width="70" height="40" as="geometry"/>
                </mxCell>
                <mxCell id="84" value=";" style="rounded=1;whiteSpace=wrap;html=1;verticalAlign=middle;arcSize=10;fillColor=#d80073;fontColor=#ffffff;fontSize=22;strokeColor=#000000;" vertex="1" parent="1">
                    <mxGeometry x="510" y="930" width="70" height="40" as="geometry"/>
                </mxCell>
                <mxCell id="85" value="S" style="rounded=1;whiteSpace=wrap;html=1;verticalAlign=middle;arcSize=10;fillColor=#fa6800;fontColor=#000000;fontSize=22;strokeColor=#000000;" vertex="1" parent="1">
                    <mxGeometry x="600" y="930" width="70" height="40" as="geometry"/>
                </mxCell>
                <mxCell id="86" value=";" style="rounded=1;whiteSpace=wrap;html=1;verticalAlign=middle;arcSize=10;fillColor=#a20025;fontColor=#ffffff;fontSize=22;strokeColor=#000000;" vertex="1" parent="1">
                    <mxGeometry x="690" y="930" width="70" height="40" as="geometry"/>
                </mxCell>
                <mxCell id="87" value="end" style="rounded=1;whiteSpace=wrap;html=1;verticalAlign=middle;arcSize=10;fillColor=#a20025;fontColor=#ffffff;fontSize=22;strokeColor=#000000;" vertex="1" parent="1">
                    <mxGeometry x="780" y="930" width="70" height="40" as="geometry"/>
                </mxCell>
                <mxCell id="88" value="statlist" style="rounded=1;whiteSpace=wrap;html=1;verticalAlign=top;arcSize=10;fillColor=#6a00ff;fontColor=#ffffff;strokeColor=#000000;" vertex="1" parent="1">
                    <mxGeometry x="65" y="1310" width="220" height="60" as="geometry"/>
                </mxCell>
                <mxCell id="89" style="edgeStyle=orthogonalEdgeStyle;html=1;exitX=0.5;exitY=1;exitDx=0;exitDy=0;entryX=0.5;entryY=0;entryDx=0;entryDy=0;fontSize=17;endArrow=open;endFill=0;endSize=10;strokeColor=#000000;" edge="1" parent="1" source="90" target="98">
                    <mxGeometry relative="1" as="geometry"/>
                </mxCell>
                <mxCell id="90" value="stat" style="rounded=1;whiteSpace=wrap;html=1;fillColor=#6a00ff;fontColor=#ffffff;strokeColor=#000000;" vertex="1" parent="1">
                    <mxGeometry x="75" y="1340" width="60" height="25" as="geometry"/>
                </mxCell>
                <mxCell id="91" value=";" style="rounded=1;whiteSpace=wrap;html=1;fillColor=#d80073;fontColor=#ffffff;fontSize=17;strokeColor=#000000;" vertex="1" parent="1">
                    <mxGeometry x="145" y="1340" width="60" height="25" as="geometry"/>
                </mxCell>
                <mxCell id="92" style="edgeStyle=orthogonalEdgeStyle;html=1;exitX=0.5;exitY=1;exitDx=0;exitDy=0;entryX=0.5;entryY=0;entryDx=0;entryDy=0;fontSize=17;endArrow=open;endFill=0;endSize=10;strokeColor=#000000;" edge="1" parent="1" source="93" target="100">
                    <mxGeometry relative="1" as="geometry"/>
                </mxCell>
                <mxCell id="93" value="statlist" style="rounded=1;whiteSpace=wrap;html=1;fillColor=#6a00ff;fontColor=#ffffff;strokeColor=#000000;" vertex="1" parent="1">
                    <mxGeometry x="215" y="1340" width="60" height="25" as="geometry"/>
                </mxCell>
                <mxCell id="94" value="stat" style="rounded=1;whiteSpace=wrap;html=1;verticalAlign=top;arcSize=10;fillColor=#6a00ff;fontColor=#ffffff;strokeColor=#000000;" vertex="1" parent="1">
                    <mxGeometry x="65" y="1220" width="150" height="60" as="geometry"/>
                </mxCell>
                <mxCell id="95" value="begin" style="rounded=1;whiteSpace=wrap;html=1;fillColor=#d80073;fontColor=#ffffff;fontSize=17;verticalAlign=middle;strokeColor=#000000;" vertex="1" parent="1">
                    <mxGeometry x="75" y="1250" width="60" height="25" as="geometry"/>
                </mxCell>
                <mxCell id="96" style="edgeStyle=orthogonalEdgeStyle;html=1;exitX=0.5;exitY=1;exitDx=0;exitDy=0;entryX=0.5;entryY=0;entryDx=0;entryDy=0;fontSize=17;endArrow=open;endFill=0;endSize=10;strokeColor=#000000;" edge="1" parent="1" source="97" target="88">
                    <mxGeometry relative="1" as="geometry"/>
                </mxCell>
                <mxCell id="97" value="statlist" style="rounded=1;whiteSpace=wrap;html=1;fillColor=#6a00ff;fontColor=#ffffff;strokeColor=#000000;" vertex="1" parent="1">
                    <mxGeometry x="145" y="1250" width="60" height="25" as="geometry"/>
                </mxCell>
                <mxCell id="98" value="stat" style="rounded=1;whiteSpace=wrap;html=1;verticalAlign=top;arcSize=10;fillColor=#6a00ff;fontColor=#ffffff;strokeColor=#000000;" vertex="1" parent="1">
                    <mxGeometry x="70" y="1400" width="70" height="60" as="geometry"/>
                </mxCell>
                <mxCell id="99" value="S" style="rounded=1;whiteSpace=wrap;html=1;fillColor=#d80073;fontColor=#ffffff;fontSize=22;strokeColor=#000000;" vertex="1" parent="1">
                    <mxGeometry x="75" y="1425" width="60" height="25" as="geometry"/>
                </mxCell>
                <mxCell id="100" value="statlist" style="rounded=1;whiteSpace=wrap;html=1;verticalAlign=top;arcSize=10;fillColor=#0050ef;fontColor=#ffffff;strokeColor=#000000;" vertex="1" parent="1">
                    <mxGeometry x="165" y="1400" width="220" height="60" as="geometry"/>
                </mxCell>
                <mxCell id="101" style="edgeStyle=orthogonalEdgeStyle;html=1;exitX=0.5;exitY=1;exitDx=0;exitDy=0;entryX=0.5;entryY=0;entryDx=0;entryDy=0;fontSize=17;endArrow=open;endFill=0;endSize=10;strokeColor=#000000;" edge="1" parent="1" source="102" target="105">
                    <mxGeometry relative="1" as="geometry"/>
                </mxCell>
                <mxCell id="102" value="stat" style="rounded=1;whiteSpace=wrap;html=1;fillColor=#6a00ff;fontColor=#ffffff;strokeColor=#000000;" vertex="1" parent="1">
                    <mxGeometry x="175" y="1430" width="60" height="25" as="geometry"/>
                </mxCell>
                <mxCell id="103" value=";" style="rounded=1;whiteSpace=wrap;html=1;fillColor=#a20025;fontColor=#ffffff;fontSize=17;strokeColor=#000000;" vertex="1" parent="1">
                    <mxGeometry x="245" y="1430" width="60" height="25" as="geometry"/>
                </mxCell>
                <mxCell id="104" value="statlist" style="rounded=1;whiteSpace=wrap;html=1;fillColor=#6a00ff;fontColor=#ffffff;strokeColor=#000000;" vertex="1" parent="1">
                    <mxGeometry x="315" y="1430" width="60" height="25" as="geometry"/>
                </mxCell>
                <mxCell id="105" value="stat" style="rounded=1;whiteSpace=wrap;html=1;verticalAlign=top;arcSize=10;fillColor=#6a00ff;fontColor=#ffffff;strokeColor=#000000;" vertex="1" parent="1">
                    <mxGeometry x="170" y="1490" width="70" height="60" as="geometry"/>
                </mxCell>
                <mxCell id="106" value="S" style="rounded=1;whiteSpace=wrap;html=1;fillColor=#d80073;fontColor=#ffffff;fontSize=22;strokeColor=#000000;" vertex="1" parent="1">
                    <mxGeometry x="175" y="1515" width="60" height="25" as="geometry"/>
                </mxCell>
                <mxCell id="107" value="begin" style="rounded=1;whiteSpace=wrap;html=1;verticalAlign=middle;arcSize=10;fillColor=#d80073;fontColor=#ffffff;fontSize=22;strokeColor=#000000;" vertex="1" parent="1">
                    <mxGeometry x="335" y="1230" width="70" height="40" as="geometry"/>
                </mxCell>
                <mxCell id="108" value="S" style="rounded=1;whiteSpace=wrap;html=1;verticalAlign=middle;arcSize=10;fillColor=#d80073;fontColor=#ffffff;fontSize=22;strokeColor=#000000;" vertex="1" parent="1">
                    <mxGeometry x="420" y="1230" width="70" height="40" as="geometry"/>
                </mxCell>
                <mxCell id="109" value=";" style="rounded=1;whiteSpace=wrap;html=1;verticalAlign=middle;arcSize=10;fillColor=#d80073;fontColor=#ffffff;fontSize=22;strokeColor=#000000;" vertex="1" parent="1">
                    <mxGeometry x="510" y="1230" width="70" height="40" as="geometry"/>
                </mxCell>
                <mxCell id="110" value="S" style="rounded=1;whiteSpace=wrap;html=1;verticalAlign=middle;arcSize=10;fillColor=#d80073;fontColor=#ffffff;fontSize=22;strokeColor=#000000;" vertex="1" parent="1">
                    <mxGeometry x="600" y="1230" width="70" height="40" as="geometry"/>
                </mxCell>
                <mxCell id="111" value=";" style="rounded=1;whiteSpace=wrap;html=1;verticalAlign=middle;arcSize=10;fillColor=#fa6800;fontColor=#000000;fontSize=22;strokeColor=#000000;" vertex="1" parent="1">
                    <mxGeometry x="690" y="1230" width="70" height="40" as="geometry"/>
                </mxCell>
                <mxCell id="112" value="end" style="rounded=1;whiteSpace=wrap;html=1;verticalAlign=middle;arcSize=10;fillColor=#a20025;fontColor=#ffffff;fontSize=22;strokeColor=#000000;" vertex="1" parent="1">
                    <mxGeometry x="780" y="1230" width="70" height="40" as="geometry"/>
                </mxCell>
                <mxCell id="113" value="statlist" style="rounded=1;whiteSpace=wrap;html=1;verticalAlign=top;arcSize=10;fillColor=#6a00ff;fontColor=#ffffff;strokeColor=#000000;" vertex="1" parent="1">
                    <mxGeometry x="60" y="1660" width="220" height="60" as="geometry"/>
                </mxCell>
                <mxCell id="114" style="edgeStyle=orthogonalEdgeStyle;html=1;exitX=0.5;exitY=1;exitDx=0;exitDy=0;entryX=0.5;entryY=0;entryDx=0;entryDy=0;fontSize=17;endArrow=open;endFill=0;endSize=10;strokeColor=#000000;" edge="1" parent="1" source="115" target="123">
                    <mxGeometry relative="1" as="geometry"/>
                </mxCell>
                <mxCell id="115" value="stat" style="rounded=1;whiteSpace=wrap;html=1;fillColor=#6a00ff;fontColor=#ffffff;strokeColor=#000000;" vertex="1" parent="1">
                    <mxGeometry x="70" y="1690" width="60" height="25" as="geometry"/>
                </mxCell>
                <mxCell id="116" value=";" style="rounded=1;whiteSpace=wrap;html=1;fillColor=#d80073;fontColor=#ffffff;fontSize=17;strokeColor=#000000;" vertex="1" parent="1">
                    <mxGeometry x="140" y="1690" width="60" height="25" as="geometry"/>
                </mxCell>
                <mxCell id="117" style="edgeStyle=orthogonalEdgeStyle;html=1;exitX=0.5;exitY=1;exitDx=0;exitDy=0;entryX=0.5;entryY=0;entryDx=0;entryDy=0;fontSize=17;endArrow=open;endFill=0;endSize=10;strokeColor=#000000;" edge="1" parent="1" source="118" target="125">
                    <mxGeometry relative="1" as="geometry"/>
                </mxCell>
                <mxCell id="118" value="statlist" style="rounded=1;whiteSpace=wrap;html=1;fillColor=#6a00ff;fontColor=#ffffff;strokeColor=#000000;" vertex="1" parent="1">
                    <mxGeometry x="210" y="1690" width="60" height="25" as="geometry"/>
                </mxCell>
                <mxCell id="119" value="stat" style="rounded=1;whiteSpace=wrap;html=1;verticalAlign=top;arcSize=10;fillColor=#6a00ff;fontColor=#ffffff;strokeColor=#000000;" vertex="1" parent="1">
                    <mxGeometry x="60" y="1570" width="150" height="60" as="geometry"/>
                </mxCell>
                <mxCell id="120" value="begin" style="rounded=1;whiteSpace=wrap;html=1;fillColor=#d80073;fontColor=#ffffff;fontSize=17;verticalAlign=middle;strokeColor=#000000;" vertex="1" parent="1">
                    <mxGeometry x="70" y="1600" width="60" height="25" as="geometry"/>
                </mxCell>
                <mxCell id="121" style="edgeStyle=orthogonalEdgeStyle;html=1;exitX=0.5;exitY=1;exitDx=0;exitDy=0;entryX=0.5;entryY=0;entryDx=0;entryDy=0;fontSize=17;endArrow=open;endFill=0;endSize=10;strokeColor=#000000;" edge="1" parent="1" source="122" target="113">
                    <mxGeometry relative="1" as="geometry"/>
                </mxCell>
                <mxCell id="122" value="statlist" style="rounded=1;whiteSpace=wrap;html=1;fillColor=#6a00ff;fontColor=#ffffff;strokeColor=#000000;" vertex="1" parent="1">
                    <mxGeometry x="140" y="1600" width="60" height="25" as="geometry"/>
                </mxCell>
                <mxCell id="123" value="stat" style="rounded=1;whiteSpace=wrap;html=1;verticalAlign=top;arcSize=10;fillColor=#6a00ff;fontColor=#ffffff;strokeColor=#000000;" vertex="1" parent="1">
                    <mxGeometry x="65" y="1750" width="70" height="60" as="geometry"/>
                </mxCell>
                <mxCell id="124" value="S" style="rounded=1;whiteSpace=wrap;html=1;fillColor=#d80073;fontColor=#ffffff;fontSize=22;strokeColor=#000000;" vertex="1" parent="1">
                    <mxGeometry x="70" y="1775" width="60" height="25" as="geometry"/>
                </mxCell>
                <mxCell id="125" value="statlist" style="rounded=1;whiteSpace=wrap;html=1;verticalAlign=top;arcSize=10;fillColor=#6a00ff;fontColor=#ffffff;strokeColor=#000000;" vertex="1" parent="1">
                    <mxGeometry x="160" y="1750" width="220" height="60" as="geometry"/>
                </mxCell>
                <mxCell id="126" style="edgeStyle=orthogonalEdgeStyle;html=1;exitX=0.5;exitY=1;exitDx=0;exitDy=0;entryX=0.5;entryY=0;entryDx=0;entryDy=0;fontSize=17;endArrow=open;endFill=0;endSize=10;strokeColor=#000000;" edge="1" parent="1" source="127" target="130">
                    <mxGeometry relative="1" as="geometry"/>
                </mxCell>
                <mxCell id="127" value="stat" style="rounded=1;whiteSpace=wrap;html=1;fillColor=#6a00ff;fontColor=#ffffff;strokeColor=#000000;" vertex="1" parent="1">
                    <mxGeometry x="170" y="1780" width="60" height="25" as="geometry"/>
                </mxCell>
                <mxCell id="128" value=";" style="rounded=1;whiteSpace=wrap;html=1;fillColor=#d80073;fontColor=#ffffff;fontSize=17;strokeColor=#000000;" vertex="1" parent="1">
                    <mxGeometry x="240" y="1780" width="60" height="25" as="geometry"/>
                </mxCell>
                <mxCell id="129" value="statlist" style="rounded=1;whiteSpace=wrap;html=1;fillColor=#0050ef;fontColor=#ffffff;strokeColor=#000000;" vertex="1" parent="1">
                    <mxGeometry x="310" y="1780" width="60" height="25" as="geometry"/>
                </mxCell>
                <mxCell id="130" value="stat" style="rounded=1;whiteSpace=wrap;html=1;verticalAlign=top;arcSize=10;fillColor=#6a00ff;fontColor=#ffffff;strokeColor=#000000;" vertex="1" parent="1">
                    <mxGeometry x="165" y="1840" width="70" height="60" as="geometry"/>
                </mxCell>
                <mxCell id="131" value="S" style="rounded=1;whiteSpace=wrap;html=1;fillColor=#d80073;fontColor=#ffffff;fontSize=22;strokeColor=#000000;" vertex="1" parent="1">
                    <mxGeometry x="170" y="1865" width="60" height="25" as="geometry"/>
                </mxCell>
                <mxCell id="132" value="begin" style="rounded=1;whiteSpace=wrap;html=1;verticalAlign=middle;arcSize=10;fillColor=#d80073;fontColor=#ffffff;fontSize=22;strokeColor=#000000;" vertex="1" parent="1">
                    <mxGeometry x="335" y="1580" width="70" height="40" as="geometry"/>
                </mxCell>
                <mxCell id="133" value="S" style="rounded=1;whiteSpace=wrap;html=1;verticalAlign=middle;arcSize=10;fillColor=#d80073;fontColor=#ffffff;fontSize=22;strokeColor=#000000;" vertex="1" parent="1">
                    <mxGeometry x="420" y="1580" width="70" height="40" as="geometry"/>
                </mxCell>
                <mxCell id="134" value=";" style="rounded=1;whiteSpace=wrap;html=1;verticalAlign=middle;arcSize=10;fillColor=#d80073;fontColor=#ffffff;fontSize=22;strokeColor=#000000;" vertex="1" parent="1">
                    <mxGeometry x="510" y="1580" width="70" height="40" as="geometry"/>
                </mxCell>
                <mxCell id="135" value="S" style="rounded=1;whiteSpace=wrap;html=1;verticalAlign=middle;arcSize=10;fillColor=#d80073;fontColor=#ffffff;fontSize=22;strokeColor=#000000;" vertex="1" parent="1">
                    <mxGeometry x="600" y="1580" width="70" height="40" as="geometry"/>
                </mxCell>
                <mxCell id="136" value=";" style="rounded=1;whiteSpace=wrap;html=1;verticalAlign=middle;arcSize=10;fillColor=#d80073;fontColor=#ffffff;fontSize=22;strokeColor=#000000;" vertex="1" parent="1">
                    <mxGeometry x="690" y="1580" width="70" height="40" as="geometry"/>
                </mxCell>
                <mxCell id="137" value="end" style="rounded=1;whiteSpace=wrap;html=1;verticalAlign=middle;arcSize=10;fillColor=#fa6800;fontColor=#000000;fontSize=22;strokeColor=#000000;" vertex="1" parent="1">
                    <mxGeometry x="780" y="1580" width="70" height="40" as="geometry"/>
                </mxCell>
                <mxCell id="138" value="statlist" style="rounded=1;whiteSpace=wrap;html=1;verticalAlign=top;arcSize=10;fillColor=#6a00ff;fontColor=#ffffff;strokeColor=#000000;" vertex="1" parent="1">
                    <mxGeometry x="50" y="2020" width="220" height="60" as="geometry"/>
                </mxCell>
                <mxCell id="139" style="edgeStyle=orthogonalEdgeStyle;html=1;exitX=0.5;exitY=1;exitDx=0;exitDy=0;entryX=0.5;entryY=0;entryDx=0;entryDy=0;fontSize=17;endArrow=open;endFill=0;endSize=10;strokeColor=#000000;" edge="1" parent="1" source="140" target="148">
                    <mxGeometry relative="1" as="geometry"/>
                </mxCell>
                <mxCell id="140" value="stat" style="rounded=1;whiteSpace=wrap;html=1;fillColor=#6a00ff;fontColor=#ffffff;strokeColor=#000000;" vertex="1" parent="1">
                    <mxGeometry x="60" y="2050" width="60" height="25" as="geometry"/>
                </mxCell>
                <mxCell id="141" value=";" style="rounded=1;whiteSpace=wrap;html=1;fillColor=#d80073;fontColor=#ffffff;fontSize=17;strokeColor=#000000;" vertex="1" parent="1">
                    <mxGeometry x="130" y="2050" width="60" height="25" as="geometry"/>
                </mxCell>
                <mxCell id="142" style="edgeStyle=orthogonalEdgeStyle;html=1;exitX=0.5;exitY=1;exitDx=0;exitDy=0;entryX=0.5;entryY=0;entryDx=0;entryDy=0;fontSize=17;endArrow=open;endFill=0;endSize=10;strokeColor=#000000;" edge="1" parent="1" source="143" target="150">
                    <mxGeometry relative="1" as="geometry"/>
                </mxCell>
                <mxCell id="143" value="statlist" style="rounded=1;whiteSpace=wrap;html=1;fillColor=#6a00ff;fontColor=#ffffff;strokeColor=#000000;" vertex="1" parent="1">
                    <mxGeometry x="200" y="2050" width="60" height="25" as="geometry"/>
                </mxCell>
                <mxCell id="144" value="stat" style="rounded=1;whiteSpace=wrap;html=1;verticalAlign=top;arcSize=10;fillColor=#6a00ff;fontColor=#ffffff;strokeColor=#000000;" vertex="1" parent="1">
                    <mxGeometry x="50" y="1930" width="150" height="60" as="geometry"/>
                </mxCell>
                <mxCell id="145" value="begin" style="rounded=1;whiteSpace=wrap;html=1;fillColor=#d80073;fontColor=#ffffff;fontSize=17;verticalAlign=middle;strokeColor=#000000;" vertex="1" parent="1">
                    <mxGeometry x="60" y="1960" width="60" height="25" as="geometry"/>
                </mxCell>
                <mxCell id="146" style="edgeStyle=orthogonalEdgeStyle;html=1;exitX=0.5;exitY=1;exitDx=0;exitDy=0;entryX=0.5;entryY=0;entryDx=0;entryDy=0;fontSize=17;endArrow=open;endFill=0;endSize=10;strokeColor=#000000;" edge="1" parent="1" source="147" target="138">
                    <mxGeometry relative="1" as="geometry"/>
                </mxCell>
                <mxCell id="147" value="statlist" style="rounded=1;whiteSpace=wrap;html=1;fillColor=#6a00ff;fontColor=#ffffff;strokeColor=#000000;" vertex="1" parent="1">
                    <mxGeometry x="130" y="1960" width="60" height="25" as="geometry"/>
                </mxCell>
                <mxCell id="148" value="stat" style="rounded=1;whiteSpace=wrap;html=1;verticalAlign=top;arcSize=10;fillColor=#6a00ff;fontColor=#ffffff;strokeColor=#000000;" vertex="1" parent="1">
                    <mxGeometry x="55" y="2110" width="70" height="60" as="geometry"/>
                </mxCell>
                <mxCell id="149" value="S" style="rounded=1;whiteSpace=wrap;html=1;fillColor=#d80073;fontColor=#ffffff;fontSize=22;strokeColor=#000000;" vertex="1" parent="1">
                    <mxGeometry x="60" y="2135" width="60" height="25" as="geometry"/>
                </mxCell>
                <mxCell id="150" value="statlist" style="rounded=1;whiteSpace=wrap;html=1;verticalAlign=top;arcSize=10;fillColor=#6a00ff;fontColor=#ffffff;strokeColor=#000000;" vertex="1" parent="1">
                    <mxGeometry x="150" y="2110" width="220" height="60" as="geometry"/>
                </mxCell>
                <mxCell id="151" style="edgeStyle=orthogonalEdgeStyle;html=1;exitX=0.5;exitY=1;exitDx=0;exitDy=0;entryX=0.5;entryY=0;entryDx=0;entryDy=0;fontSize=17;endArrow=open;endFill=0;endSize=10;strokeColor=#000000;" edge="1" parent="1" source="152" target="156">
                    <mxGeometry relative="1" as="geometry"/>
                </mxCell>
                <mxCell id="152" value="stat" style="rounded=1;whiteSpace=wrap;html=1;fillColor=#6a00ff;fontColor=#ffffff;strokeColor=#000000;" vertex="1" parent="1">
                    <mxGeometry x="160" y="2140" width="60" height="25" as="geometry"/>
                </mxCell>
                <mxCell id="153" value=";" style="rounded=1;whiteSpace=wrap;html=1;fillColor=#d80073;fontColor=#ffffff;fontSize=17;strokeColor=#000000;" vertex="1" parent="1">
                    <mxGeometry x="230" y="2140" width="60" height="25" as="geometry"/>
                </mxCell>
                <mxCell id="154" style="edgeStyle=orthogonalEdgeStyle;html=1;exitX=0.5;exitY=1;exitDx=0;exitDy=0;entryX=0.5;entryY=0;entryDx=0;entryDy=0;fontSize=17;endArrow=open;endFill=0;endSize=10;strokeColor=#000000;" edge="1" parent="1" source="155" target="158">
                    <mxGeometry relative="1" as="geometry"/>
                </mxCell>
                <mxCell id="155" value="statlist" style="rounded=1;whiteSpace=wrap;html=1;fillColor=#6a00ff;fontColor=#ffffff;strokeColor=#000000;" vertex="1" parent="1">
                    <mxGeometry x="300" y="2140" width="60" height="25" as="geometry"/>
                </mxCell>
                <mxCell id="156" value="stat" style="rounded=1;whiteSpace=wrap;html=1;verticalAlign=top;arcSize=10;fillColor=#6a00ff;fontColor=#ffffff;strokeColor=#000000;" vertex="1" parent="1">
                    <mxGeometry x="155" y="2200" width="70" height="60" as="geometry"/>
                </mxCell>
                <mxCell id="157" value="S" style="rounded=1;whiteSpace=wrap;html=1;fillColor=#d80073;fontColor=#ffffff;fontSize=22;strokeColor=#000000;" vertex="1" parent="1">
                    <mxGeometry x="160" y="2225" width="60" height="25" as="geometry"/>
                </mxCell>
                <mxCell id="158" value="statlist" style="rounded=1;whiteSpace=wrap;html=1;verticalAlign=top;arcSize=10;fillColor=#6a00ff;fontColor=#ffffff;strokeColor=#000000;" vertex="1" parent="1">
                    <mxGeometry x="295" y="2200" width="70" height="60" as="geometry"/>
                </mxCell>
                <mxCell id="159" value="end" style="rounded=1;whiteSpace=wrap;html=1;fillColor=#d80073;fontColor=#ffffff;fontSize=22;strokeColor=#000000;" vertex="1" parent="1">
                    <mxGeometry x="300" y="2225" width="60" height="25" as="geometry"/>
                </mxCell>
                <mxCell id="160" value="begin" style="rounded=1;whiteSpace=wrap;html=1;verticalAlign=middle;arcSize=10;fillColor=#d80073;fontColor=#ffffff;fontSize=22;strokeColor=#000000;" vertex="1" parent="1">
                    <mxGeometry x="335" y="1940" width="70" height="40" as="geometry"/>
                </mxCell>
                <mxCell id="161" value="S" style="rounded=1;whiteSpace=wrap;html=1;verticalAlign=middle;arcSize=10;fillColor=#d80073;fontColor=#ffffff;fontSize=22;strokeColor=#000000;" vertex="1" parent="1">
                    <mxGeometry x="420" y="1940" width="70" height="40" as="geometry"/>
                </mxCell>
                <mxCell id="162" value=";" style="rounded=1;whiteSpace=wrap;html=1;verticalAlign=middle;arcSize=10;fillColor=#d80073;fontColor=#ffffff;fontSize=22;strokeColor=#000000;" vertex="1" parent="1">
                    <mxGeometry x="510" y="1940" width="70" height="40" as="geometry"/>
                </mxCell>
                <mxCell id="163" value="S" style="rounded=1;whiteSpace=wrap;html=1;verticalAlign=middle;arcSize=10;fillColor=#d80073;fontColor=#ffffff;fontSize=22;strokeColor=#000000;" vertex="1" parent="1">
                    <mxGeometry x="600" y="1940" width="70" height="40" as="geometry"/>
                </mxCell>
                <mxCell id="164" value=";" style="rounded=1;whiteSpace=wrap;html=1;verticalAlign=middle;arcSize=10;fillColor=#d80073;fontColor=#ffffff;fontSize=22;strokeColor=#000000;" vertex="1" parent="1">
                    <mxGeometry x="690" y="1940" width="70" height="40" as="geometry"/>
                </mxCell>
                <mxCell id="165" value="end" style="rounded=1;whiteSpace=wrap;html=1;verticalAlign=middle;arcSize=10;fillColor=#d80073;fontColor=#ffffff;fontSize=22;strokeColor=#000000;" vertex="1" parent="1">
                    <mxGeometry x="780" y="1940" width="70" height="40" as="geometry"/>
                </mxCell>
                <mxCell id="170" value="5" style="ellipse;whiteSpace=wrap;html=1;aspect=fixed;fontSize=17;strokeColor=#000000;verticalAlign=middle;" vertex="1" parent="1">
                    <mxGeometry x="-30" y="670" width="40" height="40" as="geometry"/>
                </mxCell>
                <mxCell id="171" value="6" style="ellipse;whiteSpace=wrap;html=1;aspect=fixed;fontSize=17;strokeColor=#000000;verticalAlign=middle;" vertex="1" parent="1">
                    <mxGeometry x="-30" y="940" width="40" height="40" as="geometry"/>
                </mxCell>
                <mxCell id="172" value="7" style="ellipse;whiteSpace=wrap;html=1;aspect=fixed;fontSize=17;strokeColor=#000000;verticalAlign=middle;" vertex="1" parent="1">
                    <mxGeometry x="-30" y="1230" width="40" height="40" as="geometry"/>
                </mxCell>
                <mxCell id="173" value="8" style="ellipse;whiteSpace=wrap;html=1;aspect=fixed;fontSize=17;strokeColor=#000000;verticalAlign=middle;" vertex="1" parent="1">
                    <mxGeometry x="-30" y="1580" width="40" height="40" as="geometry"/>
                </mxCell>
                <mxCell id="174" value="9" style="ellipse;whiteSpace=wrap;html=1;aspect=fixed;fontSize=17;strokeColor=#000000;verticalAlign=middle;" vertex="1" parent="1">
                    <mxGeometry x="-30" y="1940" width="40" height="40" as="geometry"/>
                </mxCell>
                <mxCell id="179" value="" style="endArrow=none;dashed=1;html=1;dashPattern=1 3;strokeWidth=2;fontSize=17;endSize=10;strokeColor=#000000;" edge="1" parent="1">
                    <mxGeometry y="90" width="50" height="50" as="geometry">
                        <mxPoint x="850" y="910" as="sourcePoint"/>
                        <mxPoint x="4.547473508864641e-13" y="910" as="targetPoint"/>
                    </mxGeometry>
                </mxCell>
                <mxCell id="180" value="" style="endArrow=none;dashed=1;html=1;dashPattern=1 3;strokeWidth=2;fontSize=17;endSize=10;strokeColor=#000000;" edge="1" parent="1">
                    <mxGeometry y="90" width="50" height="50" as="geometry">
                        <mxPoint x="850" y="1200" as="sourcePoint"/>
                        <mxPoint x="4.547473508864641e-13" y="1200" as="targetPoint"/>
                    </mxGeometry>
                </mxCell>
                <mxCell id="181" value="" style="endArrow=none;dashed=1;html=1;dashPattern=1 3;strokeWidth=2;fontSize=17;endSize=10;strokeColor=#000000;" edge="1" parent="1">
                    <mxGeometry y="90" width="50" height="50" as="geometry">
                        <mxPoint x="850" y="1560" as="sourcePoint"/>
                        <mxPoint x="4.547473508864641e-13" y="1560" as="targetPoint"/>
                    </mxGeometry>
                </mxCell>
                <mxCell id="182" value="" style="endArrow=none;dashed=1;html=1;dashPattern=1 3;strokeWidth=2;fontSize=17;endSize=10;strokeColor=#000000;" edge="1" parent="1">
                    <mxGeometry y="90" width="50" height="50" as="geometry">
                        <mxPoint x="850" y="1920" as="sourcePoint"/>
                        <mxPoint x="4.547473508864641e-13" y="1920" as="targetPoint"/>
                    </mxGeometry>
                </mxCell>
                <mxCell id="195" style="edgeStyle=orthogonalEdgeStyle;html=1;exitX=0;exitY=0.5;exitDx=0;exitDy=0;entryX=0.5;entryY=1;entryDx=0;entryDy=0;fontSize=17;endArrow=open;endFill=0;endSize=10;strokeColor=#000000;" edge="1" parent="1" source="196" target="55">
                    <mxGeometry relative="1" as="geometry"/>
                </mxCell>
                <mxCell id="196" value="Semicolon matches, so next non-terminal is the statlist" style="text;html=1;strokeColor=none;fillColor=none;align=center;verticalAlign=middle;whiteSpace=wrap;rounded=0;fontSize=17;" vertex="1" parent="1">
                    <mxGeometry x="200" y="830" width="220" height="45" as="geometry"/>
                </mxCell>
            </root>
        </mxGraphModel>
    </diagram>
</mxfile>